<svg xmlns="http://www.w3.org/2000/svg" viewBox="0 0 64 64" role="img" aria-labelledby="t"><title>水槽セット</title><defs><linearGradient id="g" x1="0" y1="0" x2="1" y2="1"><stop offset="0" stop-color="#61d0c6"/><stop offset="1" stop-color="#2f82dc"/></linearGradient></defs><rect x="10" y="16" width="44" height="32" rx="6" fill="#eaf8ff" stroke="url(#g)" stroke-width="3"/><path d="M14 24c4 0 4 2 8 2s4-2 8-2 4 2 8 2 4-2 8-2 4 2 8 2" fill="none" stroke="#b7e7ff" stroke-width="2" stroke-linecap="round"/><path d="M14 43h36" stroke="#e4d3a4" stroke-width="4" stroke-linecap="round"/><path d="M22 40V30" stroke="#63c58a" stroke-width="3" stroke-linecap="round"/><path d="M22 31c-4 1-4 5 0 6" fill="none" stroke="#63c58a" stroke-width="2" stroke-linecap="round"/><path d="M22 34c4 1 4 5 0 6" fill="none" stroke="#63c58a" stroke-width="2" stroke-linecap="round"/><path d="M39 34l4-2 4 2-4 2-4-2Z" fill="#ffb15e"/><circle cx="44.5" cy="33.5" r="1.1" fill="#fff"/><path d="M18 10h28" stroke="#245ea9" stroke-width="4" stroke-linecap="round"/></svg>